<?xml version="1.0" encoding="utf-8"?>
<!-- Generator: Adobe Illustrator 21.0.2, SVG Export Plug-In . SVG Version: 6.00 Build 0)  -->
<svg version="1.1" xmlns="http://www.w3.org/2000/svg" xmlns:xlink="http://www.w3.org/1999/xlink" x="0px" y="0px"
	 viewBox="0 0 150 150" style="enable-background:new 0 0 150 150;" xml:space="preserve">
<style type="text/css">
	.st0{display:none;}
	.st1{display:inline;}
	.st2{fill:#FFFFFF;}
	.st3{fill:#DDB26E;}
	.st4{fill:#FFFFFF;stroke:#DDB26E;stroke-width:4.5864;stroke-linecap:round;stroke-linejoin:round;stroke-miterlimit:10;}
	.st5{display:inline;fill:none;stroke:#73502A;stroke-width:2.2855;stroke-miterlimit:10;}
	.st6{fill:none;stroke:#73502A;stroke-width:2.2855;stroke-miterlimit:10;}
	.st7{fill:none;stroke:#73502A;stroke-width:2.2891;stroke-miterlimit:10;}
	.st8{fill:none;stroke:#73502A;stroke-width:2.2855;stroke-linecap:round;stroke-linejoin:round;stroke-miterlimit:10;}
</style>
<g id="Layer_1" class="st0">
	<g class="st1">
		<g>
			<path class="st2" d="M75,113.2c-21.1,0-38.2-17.1-38.2-38.2c0-21.1,17.1-38.2,38.2-38.2c21.1,0,38.2,17.1,38.2,38.2
				C113.2,96.1,96.1,113.2,75,113.2z"/>
			<path class="st3" d="M75,37.8c20.5,0,37.2,16.7,37.2,37.2S95.5,112.2,75,112.2S37.8,95.5,37.8,75S54.5,37.8,75,37.8 M75,35.8
				c-21.6,0-39.2,17.5-39.2,39.2s17.5,39.2,39.2,39.2s39.2-17.5,39.2-39.2S96.6,35.8,75,35.8L75,35.8z"/>
		</g>
		<polyline class="st4" points="82.9,56.2 64.1,75 82.9,93.8 		"/>
	</g>
</g>
<g id="Layer_2">
	<g id="descIcon" class="st0">
		<circle class="st5" cx="75" cy="75" r="72"/>
		<g class="st1">
			<rect x="37.4" y="51.5" class="st6" width="9.4" height="9.4"/>
			<rect x="37.4" y="70.3" class="st6" width="9.4" height="9.4"/>
			<rect x="37.4" y="89.1" class="st6" width="9.4" height="9.4"/>
			<rect x="56.2" y="51.5" class="st6" width="56.4" height="9.4"/>
			<rect x="56.2" y="70.3" class="st6" width="56.4" height="9.4"/>
			<rect x="56.2" y="89.1" class="st6" width="56.4" height="9.4"/>
		</g>
	</g>
	<g id="infoIcon">
		<circle class="st6" cx="75" cy="75" r="72"/>
		<g>
			<path class="st6" d="M79.4,52.2h-8.9V44h8.9V52.2z M78.9,106.9h-7.9V60h7.9V106.9z"/>
		</g>
	</g>
	<g id="awarIcon" class="st0">
		<circle class="st5" cx="75" cy="75" r="72"/>
		<g class="st1">
			<polyline class="st7" points="57.3,82.4 57.3,121.9 75,111 92.7,121.9 92.7,82.4 			"/>
			<circle class="st7" cx="75" cy="57.1" r="16"/>
			<polygon class="st7" points="99.5,57.1 104,49.3 96.2,44.8 96.2,35.9 87.2,35.9 82.8,28.1 75,32.6 67.2,28.1 62.8,35.9 
				53.8,35.9 53.8,44.8 46,49.3 50.5,57.1 46,64.9 53.8,69.3 53.8,78.3 62.8,78.3 67.2,86.1 75,81.6 82.8,86.1 87.2,78.3 96.2,78.3 
				96.2,69.3 104,64.9 			"/>
		</g>
	</g>
	<g id="locaIcon" class="st0">
		<circle class="st5" cx="75" cy="75" r="72"/>
		<path class="st5" d="M75.5,35.5c-16,0-28.9,12.9-28.9,28.9c0,21.4,11.6,40.1,28.9,50.1c17.3-10,28.9-28.7,28.9-50.1
			C104.4,48.4,91.4,35.5,75.5,35.5z M75.5,81.1c-9.2,0-16.7-7.5-16.7-16.7c0-9.2,7.5-16.7,16.7-16.7s16.7,7.5,16.7,16.7
			C92.2,73.6,84.7,81.1,75.5,81.1z"/>
	</g>
	<g id="cup" class="st0">
		<circle class="st5" cx="75" cy="75" r="72"/>
		<g class="st1">
			<g>
				<circle class="st6" cx="56.8" cy="104.8" r="7.2"/>
				<circle class="st6" cx="85.8" cy="104.8" r="7.2"/>
			</g>
			<path class="st6" d="M101.9,44v34.2C101.9,85.3,96,91,89,91H53.6c-7.2,0-12.9-5.9-12.9-12.9V44"/>
			<path class="st6" d="M109.6,51h12.1c2.4,0,4.2,2,4.2,4.2v17.3c0,2.4-2,4.2-4.2,4.2h-12.1"/>
		</g>
	</g>
	<g id="present" class="st0">
		<circle class="st5" cx="75" cy="75" r="72"/>
		<g class="st1">
			<polygon class="st8" points="75,104.7 21.2,90.4 21.2,61.8 75,76.1 			"/>
			<polygon class="st8" points="128.8,61.8 75,76.1 75,104.7 128.8,90.4 			"/>
			<g>
				<polyline class="st8" points="85.8,89 85.8,89 120.1,79.8 				"/>
			</g>
			<polygon class="st8" points="21.2,61.5 75,75.8 128.8,61.5 75,44.2 			"/>
			<path class="st8" d="M75,75.8"/>
			<polyline class="st8" points="75,75.8 85.8,89 75,104.3 			"/>
			<polyline class="st8" points="128.8,90.1 120.1,79.8 128.8,61.5 			"/>
		</g>
	</g>
	<g id="roast" class="st0">
		<circle class="st5" cx="75" cy="75" r="72"/>
		<g class="st1">
			<g>
				<path class="st6" d="M72.2,88.5c0,0,1-6.8,1-14.9c0-8.1-7.3-17.8-17.6-0.6c-11.5,19.2,2,44.3,12,43
					C77.7,114.6,70.6,95.6,72.2,88.5z"/>
				<path class="st6" d="M77.9,89.7c0,0-1.1,7.8-1,15.9c0,8.1,7.3,17.8,17.6,0.6c11.5-19.2-2-44.3-12-43
					C72.3,64.6,79.5,82.6,77.9,89.7z"/>
			</g>
			<g>
				<path class="st6" d="M63.4,55.9c4.9-8.2,0-14.5,0-14.5s-4.9-6.3,0-14.5"/>
				<path class="st6" d="M75,55.9c4.9-8.2,0-14.5,0-14.5s-4.9-6.3,0-14.5"/>
				<path class="st6" d="M86.6,55.9c4.9-8.2,0-14.5,0-14.5s-4.9-6.3,0-14.5"/>
			</g>
		</g>
	</g>
	<g id="grind" class="st0">
		<circle class="st5" cx="75" cy="75" r="72"/>
		<path class="st5" d="M96.3,60.2c0,11.8-9.6,21.3-21.3,21.3s-21.3-9.6-21.3-21.3H96.3z"/>
		<rect x="53.7" y="82.5" class="st5" width="42.7" height="21.3"/>
		<polyline class="st5" points="75,60.8 75,49.5 96.3,49.5 96.3,38.8 		"/>
		<circle class="st5" cx="75" cy="93.2" r="3.5"/>
	</g>
	<g id="cupScore" class="st0">
		<circle class="st5" cx="75" cy="75" r="72"/>
		<g class="st1">
			<g>
				<path class="st6" d="M40.7,44.5H28.9c0,9.1,7.6,16.7,17,16.7c2,0,3.1-0.2,4.9-0.8"/>
				<path class="st6" d="M107,44.5h14.9c0,9.1-7.6,16.7-17,16.7c-2,0-4.7-0.2-6.5-0.8"/>
			</g>
			<path class="st6" d="M109.3,35.4H41.4c0,18.3,11.9,30.7,27.9,33.4v18.5c-6.9,2.4-10.9,9.8-10.9,16.7h-5.1v11.4h43.4V104h-4.4
				c0-6.9-4.7-14.3-11.6-16.7V68.8C96.7,66.1,109.3,53.7,109.3,35.4z"/>
		</g>
	</g>
</g>
</svg>
