<?xml version="1.0" encoding="utf-8"?>
<!-- Generator: Adobe Illustrator 21.1.0, SVG Export Plug-In . SVG Version: 6.00 Build 0)  -->
<svg version="1.1" id="Layer_1" xmlns="http://www.w3.org/2000/svg" xmlns:xlink="http://www.w3.org/1999/xlink" x="0px" y="0px"
	 viewBox="0 0 350 179.8" style="enable-background:new 0 0 350 179.8;" xml:space="preserve">
<style type="text/css">
	.st0{fill:#DDB26E;}
	.st1{fill:#FFFFFF;}
</style>
<g>
	<g>
		<g>
			<circle class="st0" cx="108.8" cy="21.5" r="5"/>
			<circle class="st0" cx="105.1" cy="7" r="5"/>
			<path class="st0" d="M145.4,11.9H186l2.9,10.8c0.6,2.2,2.5,3.6,4.7,3.6c0.4,0,0.8-0.1,1.3-0.2c2.6-0.7,4.1-3.4,3.5-6l-3.8-14.4
				c-0.6-2.1-2.5-3.6-4.7-3.6h-44.3c-2.7,0-4.9,2.2-4.9,4.9S142.8,11.9,145.4,11.9z"/>
			<path class="st0" d="M157.3,16.6c-2.7,0-4.9,2.2-4.9,4.9s2.2,4.9,4.9,4.9h20.6c2.7,0,4.9-2.2,4.9-4.9s-2.2-4.9-4.9-4.9H157.3z"/>
			<path class="st0" d="M140.6,16.6h-15.9c-2.7,0-4.9,2.2-4.9,4.9s2.2,4.9,4.9,4.9h15.9c2.7,0,4.9-2.2,4.9-4.9
				S143.3,16.6,140.6,16.6z"/>
			<path class="st0" d="M121.3,11.9h8c2.7,0,4.9-2.2,4.9-4.9s-2.2-4.9-4.9-4.9h-8c-2.7,0-4.9,2.2-4.9,4.9S118.6,11.9,121.3,11.9z"/>
		</g>
		<g>
			<g>
				<g>
					<path class="st0" d="M178.8,66.6c0,0,0.5-3.4,0.5-7.5c0-4.1-3.7-9-8.9-0.3c-5.8,9.7,1,22.4,6.1,21.7S178,70.1,178.8,66.6z"/>
					<path class="st0" d="M183.1,67.2c0,0-0.5,3.9-0.5,8c0,4.1,3.7,9,8.9,0.3c5.8-9.7-1-22.4-6.1-21.7S183.9,63.6,183.1,67.2z"/>
				</g>
			</g>
			<g>
				<circle class="st1" cx="164.4" cy="117.5" r="10.7"/>
				<circle class="st1" cx="199.2" cy="117.5" r="10.7"/>
				<path class="st1" d="M229.1,35.2c-0.9-1.2-2.3-1.9-3.9-1.9H113.8c-1.5,0-2.9,0.7-3.9,1.9c-0.9,1.2-1.2,2.8-0.8,4.2l7.7,28.9
					c0.6,2.1,2.5,3.6,4.7,3.6h21l6.7,25.2c0.6,2.1,2.5,3.6,4.7,3.6h56.1c2.2,0,4.1-1.5,4.7-3.6l15.3-57.7
					C230.3,38,230,36.4,229.1,35.2z M125.2,62.2l-5.1-19.1h14.6l5.1,19.1H125.2z M206.2,91h-48.6l-6.7-25.1c0-0.1,0-0.1-0.1-0.2
					l-6-22.6h74L206.2,91z"/>
			</g>
		</g>
	</g>
	<g>
		<g>
			<path class="st1" d="M15.2,171.7c-0.9,0.4-1.8,0.8-2.6,1c-0.8,0.2-1.7,0.4-2.6,0.4c-1.2,0-2.2-0.2-3.2-0.5
				c-1-0.3-1.8-0.9-2.5-1.5c-0.7-0.7-1.2-1.6-1.6-2.6c-0.4-1.1-0.6-2.3-0.6-3.7c0-2.6,0.7-4.7,2.2-6.2c1.4-1.5,3.4-2.2,5.7-2.2
				c0.9,0,1.8,0.1,2.7,0.4c0.9,0.3,1.7,0.6,2.4,0.9v3H15c-0.8-0.6-1.7-1.1-2.6-1.5c-0.9-0.3-1.7-0.5-2.6-0.5c-1.5,0-2.7,0.5-3.6,1.5
				c-0.9,1-1.3,2.5-1.3,4.5c0,1.9,0.4,3.4,1.3,4.5c0.9,1,2.1,1.6,3.7,1.6c0.5,0,1.1-0.1,1.7-0.2c0.6-0.1,1.1-0.3,1.5-0.6
				c0.4-0.2,0.8-0.4,1.1-0.6c0.3-0.2,0.6-0.4,0.8-0.6h0.1V171.7z"/>
			<path class="st1" d="M28.7,159.5h-0.1c-0.4-0.1-0.8-0.2-1.2-0.2c-0.4,0-0.8-0.1-1.3-0.1c-0.8,0-1.6,0.2-2.4,0.6s-1.5,0.8-2.2,1.4
				v11.4h-2.7v-16.1h2.7v2.4c1.1-0.9,2-1.5,2.8-1.8c0.8-0.4,1.7-0.5,2.5-0.5c0.5,0,0.8,0,1,0c0.2,0,0.5,0.1,0.9,0.1V159.5z"/>
			<path class="st1" d="M46.7,170.8c0,1.5-0.2,2.8-0.6,3.8c-0.4,1-1,1.8-1.8,2.4c-0.8,0.6-1.7,1-2.8,1.3c-1.1,0.3-2.3,0.4-3.7,0.4
				c-1.1,0-2.2-0.1-3.3-0.2c-1.1-0.1-2-0.3-2.8-0.5v-4h0.6c0.6,0.2,1.4,0.5,2.3,0.7c0.9,0.2,1.7,0.3,2.4,0.3c1,0,1.7-0.1,2.3-0.3
				c0.6-0.2,1.1-0.4,1.4-0.8c0.3-0.3,0.5-0.7,0.6-1.2c0.1-0.5,0.2-1.1,0.2-1.7v-0.3c-0.6,0.5-1.3,0.9-2.1,1.2
				c-0.8,0.3-1.6,0.4-2.5,0.4c-2.3,0-4-0.7-5.2-2c-1.2-1.4-1.8-3.4-1.8-6.2c0-1.3,0.2-2.5,0.6-3.5c0.4-1,0.9-1.8,1.6-2.5
				c0.6-0.7,1.4-1.2,2.3-1.6c0.9-0.4,1.9-0.6,2.8-0.6c0.9,0,1.7,0.1,2.4,0.3c0.7,0.2,1.4,0.5,1.9,0.9l0.2-0.7h5V170.8z M41.5,167.6
				v-7.3c-0.3-0.1-0.7-0.2-1.1-0.3c-0.4-0.1-0.8-0.1-1.2-0.1c-1.4,0-2.4,0.4-3.1,1.2c-0.7,0.8-1,1.9-1,3.3c0,1.6,0.3,2.6,0.9,3.3
				c0.6,0.6,1.4,0.9,2.6,0.9c0.5,0,1-0.1,1.5-0.2C40.7,168.1,41.1,167.8,41.5,167.6z"/>
			<path class="st1" d="M68.1,164.6c0,2.7-0.8,4.8-2.3,6.3c-1.5,1.5-3.7,2.3-6.5,2.3c-2.8,0-5-0.8-6.5-2.3c-1.5-1.5-2.3-3.6-2.3-6.3
				c0-2.7,0.8-4.8,2.3-6.3c1.6-1.5,3.7-2.3,6.5-2.3c2.8,0,5,0.8,6.5,2.3C67.4,159.8,68.1,161.9,68.1,164.6z M61.8,168.5
				c0.3-0.4,0.6-0.9,0.8-1.5c0.2-0.6,0.3-1.4,0.3-2.4c0-0.9-0.1-1.7-0.3-2.4c-0.2-0.6-0.4-1.2-0.7-1.5c-0.3-0.4-0.7-0.7-1.1-0.8
				c-0.4-0.2-0.9-0.2-1.4-0.2c-0.5,0-0.9,0.1-1.3,0.2c-0.4,0.1-0.8,0.4-1.1,0.8c-0.3,0.4-0.6,0.9-0.8,1.5c-0.2,0.7-0.3,1.5-0.3,2.5
				c0,0.9,0.1,1.6,0.2,2.3c0.2,0.6,0.4,1.2,0.7,1.6c0.3,0.4,0.7,0.6,1.1,0.8c0.4,0.2,0.9,0.3,1.5,0.3c0.5,0,0.9-0.1,1.3-0.2
				C61.1,169.2,61.5,168.9,61.8,168.5z"/>
			<path class="st1" d="M88,172.7h-5.2v-1.8c-1,0.7-1.8,1.3-2.6,1.7c-0.8,0.4-1.7,0.6-2.8,0.6c-1.8,0-3.2-0.5-4.1-1.5
				c-1-1-1.4-2.5-1.4-4.5v-10.5h5.2v8c0,0.8,0,1.5,0.1,2c0.1,0.5,0.2,1,0.4,1.3c0.2,0.4,0.5,0.6,0.8,0.8c0.4,0.2,0.9,0.2,1.5,0.2
				c0.4,0,0.9-0.1,1.5-0.2c0.5-0.2,1.1-0.4,1.6-0.7v-11.5H88V172.7z"/>
			<path class="st1" d="M104.6,161.4h-0.5c-0.2-0.1-0.6-0.1-1.1-0.2c-0.5,0-0.9-0.1-1.2-0.1c-0.7,0-1.4,0-2,0.1
				c-0.6,0.1-1.2,0.3-1.8,0.5v10.8h-5.2v-16.2H98v2.4c1.1-1,2.1-1.6,3-1.9c0.8-0.3,1.6-0.5,2.3-0.5c0.2,0,0.4,0,0.6,0
				c0.2,0,0.4,0,0.6,0V161.4z"/>
			<path class="st1" d="M123.3,161.2v11.5h-5.2v-8.1c0-0.8,0-1.5-0.1-2s-0.1-1-0.3-1.3c-0.2-0.3-0.4-0.6-0.8-0.8
				c-0.4-0.2-0.8-0.2-1.5-0.2c-0.5,0-1,0.1-1.5,0.3c-0.5,0.2-0.9,0.4-1.3,0.7v11.5h-5.2v-16.2h5.2v1.8c0.9-0.7,1.7-1.2,2.6-1.6
				c0.8-0.4,1.7-0.6,2.7-0.6c1.1,0,2,0.2,2.8,0.7s1.5,1.2,1.9,2.1c1-0.9,2-1.6,3-2.1c1-0.5,1.9-0.7,2.9-0.7c1.7,0,3.1,0.5,4,1.6
				c0.9,1,1.4,2.6,1.4,4.5v10.5h-5.2v-8.1c0-0.8,0-1.5-0.1-2c0-0.5-0.1-1-0.3-1.3c-0.2-0.3-0.4-0.6-0.8-0.8
				c-0.4-0.2-0.9-0.2-1.5-0.2c-0.4,0-0.9,0.1-1.3,0.2C124.4,160.6,123.9,160.9,123.3,161.2z"/>
			<path class="st1" d="M154.6,165.5h-11.9c0.1,1.3,0.6,2.2,1.4,2.9c0.9,0.7,2.2,1,3.9,1c1.1,0,2.2-0.2,3.2-0.6
				c1-0.4,1.8-0.8,2.4-1.3h0.6v4.2c-1.2,0.5-2.3,0.8-3.3,1c-1,0.2-2.2,0.3-3.4,0.3c-3.2,0-5.7-0.7-7.5-2.2c-1.7-1.5-2.6-3.5-2.6-6.2
				c0-2.7,0.8-4.8,2.5-6.3c1.6-1.6,3.9-2.3,6.7-2.3c2.6,0,4.6,0.7,5.9,2c1.3,1.3,2,3.2,2,5.7V165.5z M149.4,162.5
				c0-1.1-0.3-1.9-0.8-2.4c-0.5-0.5-1.3-0.8-2.4-0.8c-1,0-1.8,0.3-2.5,0.8c-0.6,0.5-1,1.3-1.1,2.5H149.4z"/>
			<path class="st1" d="M168.6,172.5c-0.6,0.1-1.1,0.3-1.8,0.3c-0.6,0.1-1.4,0.1-2.3,0.1c-2,0-3.5-0.4-4.5-1.2
				c-1-0.8-1.5-2.2-1.5-4.2V160h-2.1v-3.5h2.1v-4.6h5.2v4.6h4.8v3.5h-4.8v5.7c0,0.6,0,1.1,0,1.5c0,0.4,0.1,0.8,0.2,1.1
				c0.1,0.3,0.4,0.6,0.7,0.8c0.3,0.2,0.8,0.3,1.5,0.3c0.3,0,0.6-0.1,1.1-0.2c0.4-0.1,0.7-0.2,0.9-0.3h0.4V172.5z"/>
			<path class="st0" d="M180.1,173.1c-1.4,0-2.7-0.2-3.9-0.5c-1.2-0.3-2.2-0.9-3-1.6c-0.9-0.7-1.5-1.6-2-2.6
				c-0.5-1.1-0.7-2.3-0.7-3.7c0-1.5,0.3-2.8,0.8-3.9c0.5-1.1,1.2-2,2.1-2.7c0.9-0.7,1.9-1.2,3-1.5c1.1-0.3,2.3-0.5,3.6-0.5
				c1.1,0,2.1,0.1,3.1,0.4c0.9,0.2,1.8,0.6,2.6,0.9v4.4h-0.7c-0.2-0.2-0.4-0.4-0.7-0.6c-0.3-0.2-0.6-0.5-1-0.7
				c-0.4-0.2-0.8-0.4-1.3-0.5c-0.5-0.1-1-0.2-1.6-0.2c-1.4,0-2.4,0.4-3.2,1.3s-1.1,2.1-1.1,3.6c0,1.6,0.4,2.7,1.1,3.5
				c0.8,0.8,1.8,1.2,3.2,1.2c0.7,0,1.2-0.1,1.8-0.2c0.5-0.1,1-0.3,1.3-0.5c0.3-0.2,0.6-0.4,0.9-0.6c0.2-0.2,0.5-0.4,0.7-0.6h0.7v4.4
				c-0.8,0.4-1.7,0.7-2.6,0.9C182.1,173,181.2,173.1,180.1,173.1z"/>
			<path class="st0" d="M205.5,164.6c0,2.7-0.8,4.8-2.3,6.3c-1.5,1.5-3.7,2.3-6.5,2.3s-5-0.8-6.5-2.3c-1.5-1.5-2.3-3.6-2.3-6.3
				c0-2.7,0.8-4.8,2.3-6.3c1.6-1.5,3.7-2.3,6.5-2.3c2.8,0,5,0.8,6.5,2.3C204.8,159.8,205.5,161.9,205.5,164.6z M199.2,168.5
				c0.3-0.4,0.6-0.9,0.8-1.5c0.2-0.6,0.3-1.4,0.3-2.4c0-0.9-0.1-1.7-0.3-2.4c-0.2-0.6-0.4-1.2-0.7-1.5c-0.3-0.4-0.7-0.7-1.1-0.8
				c-0.4-0.2-0.9-0.2-1.4-0.2c-0.5,0-0.9,0.1-1.3,0.2c-0.4,0.1-0.8,0.4-1.1,0.8c-0.3,0.4-0.6,0.9-0.8,1.5c-0.2,0.7-0.3,1.5-0.3,2.5
				c0,0.9,0.1,1.6,0.2,2.3c0.2,0.6,0.4,1.2,0.7,1.6c0.3,0.4,0.7,0.6,1.1,0.8c0.4,0.2,0.9,0.3,1.5,0.3c0.5,0,0.9-0.1,1.3-0.2
				C198.5,169.2,198.9,168.9,199.2,168.5z"/>
			<path class="st0" d="M219.7,154.1h-0.4c-0.2-0.1-0.5-0.1-0.9-0.2c-0.4-0.1-0.8-0.1-1.2-0.1c-1,0-1.7,0.2-2.1,0.5
				c-0.4,0.4-0.5,1.1-0.5,2.1v0.1h4v3.5h-3.8v12.6h-5.2V160h-2.2v-3.5h2.2v-0.4c0-2,0.5-3.5,1.6-4.4c1.1-1,2.6-1.5,4.8-1.5
				c0.8,0,1.5,0,2.1,0.1c0.6,0.1,1.2,0.1,1.7,0.2V154.1z"/>
			<path class="st0" d="M232.2,154.1h-0.4c-0.2-0.1-0.5-0.1-0.9-0.2c-0.4-0.1-0.8-0.1-1.2-0.1c-1,0-1.7,0.2-2.1,0.5
				c-0.4,0.4-0.5,1.1-0.5,2.1v0.1h4v3.5h-3.8v12.6h-5.2V160h-2.2v-3.5h2.2v-0.4c0-2,0.5-3.5,1.6-4.4c1.1-1,2.6-1.5,4.8-1.5
				c0.8,0,1.5,0,2.1,0.1c0.6,0.1,1.2,0.1,1.7,0.2V154.1z"/>
			<path class="st0" d="M250,165.5h-11.9c0.1,1.3,0.6,2.2,1.4,2.9c0.9,0.7,2.2,1,3.9,1c1.1,0,2.2-0.2,3.2-0.6c1-0.4,1.8-0.8,2.4-1.3
				h0.6v4.2c-1.2,0.5-2.3,0.8-3.3,1c-1,0.2-2.2,0.3-3.4,0.3c-3.2,0-5.7-0.7-7.5-2.2c-1.7-1.5-2.6-3.5-2.6-6.2c0-2.7,0.8-4.8,2.5-6.3
				c1.6-1.6,3.9-2.3,6.7-2.3c2.6,0,4.6,0.7,5.9,2c1.3,1.3,2,3.2,2,5.7V165.5z M244.9,162.5c0-1.1-0.3-1.9-0.8-2.4
				c-0.5-0.5-1.3-0.8-2.4-0.8c-1,0-1.8,0.3-2.5,0.8c-0.6,0.5-1,1.3-1.1,2.5H244.9z"/>
			<path class="st0" d="M269.6,165.5h-11.9c0.1,1.3,0.6,2.2,1.4,2.9c0.9,0.7,2.2,1,3.9,1c1.1,0,2.2-0.2,3.2-0.6
				c1-0.4,1.8-0.8,2.4-1.3h0.6v4.2c-1.2,0.5-2.3,0.8-3.3,1c-1,0.2-2.2,0.3-3.4,0.3c-3.2,0-5.7-0.7-7.5-2.2c-1.7-1.5-2.6-3.5-2.6-6.2
				c0-2.7,0.8-4.8,2.5-6.3c1.6-1.6,3.9-2.3,6.7-2.3c2.6,0,4.6,0.7,5.9,2c1.3,1.3,2,3.2,2,5.7V165.5z M264.5,162.5
				c0-1.1-0.3-1.9-0.8-2.4c-0.5-0.5-1.3-0.8-2.4-0.8c-1,0-1.8,0.3-2.5,0.8c-0.6,0.5-1,1.3-1.1,2.5H264.5z"/>
			<path class="st0" d="M278.8,172.7h-5.4V167h5.4V172.7z"/>
			<path class="st0" d="M292.3,173.1c-1.4,0-2.7-0.2-3.9-0.5c-1.2-0.3-2.2-0.9-3-1.6c-0.9-0.7-1.5-1.6-2-2.6
				c-0.5-1.1-0.7-2.3-0.7-3.7c0-1.5,0.3-2.8,0.8-3.9c0.5-1.1,1.2-2,2.1-2.7c0.9-0.7,1.9-1.2,3-1.5c1.1-0.3,2.3-0.5,3.6-0.5
				c1.1,0,2.1,0.1,3.1,0.4c0.9,0.2,1.8,0.6,2.6,0.9v4.4h-0.7c-0.2-0.2-0.4-0.4-0.7-0.6c-0.3-0.2-0.6-0.5-1-0.7
				c-0.4-0.2-0.8-0.4-1.3-0.5c-0.5-0.1-1-0.2-1.6-0.2c-1.4,0-2.4,0.4-3.2,1.3s-1.1,2.1-1.1,3.6c0,1.6,0.4,2.7,1.1,3.5
				c0.8,0.8,1.8,1.2,3.2,1.2c0.7,0,1.2-0.1,1.8-0.2c0.5-0.1,1-0.3,1.3-0.5c0.3-0.2,0.6-0.4,0.9-0.6c0.2-0.2,0.5-0.4,0.7-0.6h0.7v4.4
				c-0.8,0.4-1.7,0.7-2.6,0.9C294.4,173,293.4,173.1,292.3,173.1z"/>
			<path class="st0" d="M317.8,164.6c0,2.7-0.8,4.8-2.3,6.3c-1.5,1.5-3.7,2.3-6.5,2.3s-5-0.8-6.5-2.3c-1.5-1.5-2.3-3.6-2.3-6.3
				c0-2.7,0.8-4.8,2.3-6.3c1.6-1.5,3.7-2.3,6.5-2.3c2.8,0,5,0.8,6.5,2.3C317,159.8,317.8,161.9,317.8,164.6z M311.4,168.5
				c0.3-0.4,0.6-0.9,0.8-1.5c0.2-0.6,0.3-1.4,0.3-2.4c0-0.9-0.1-1.7-0.3-2.4c-0.2-0.6-0.4-1.2-0.7-1.5c-0.3-0.4-0.7-0.7-1.1-0.8
				c-0.4-0.2-0.9-0.2-1.4-0.2c-0.5,0-0.9,0.1-1.3,0.2c-0.4,0.1-0.8,0.4-1.1,0.8c-0.3,0.4-0.6,0.9-0.8,1.5c-0.2,0.7-0.3,1.5-0.3,2.5
				c0,0.9,0.1,1.6,0.2,2.3c0.2,0.6,0.4,1.2,0.7,1.6c0.3,0.4,0.7,0.6,1.1,0.8c0.4,0.2,0.9,0.3,1.5,0.3c0.5,0,0.9-0.1,1.3-0.2
				C310.7,169.2,311.1,168.9,311.4,168.5z"/>
			<path class="st0" d="M337.3,161.2v11.5h-5.2v-8.1c0-0.8,0-1.5-0.1-2s-0.1-1-0.3-1.3c-0.2-0.3-0.4-0.6-0.8-0.8
				c-0.4-0.2-0.8-0.2-1.5-0.2c-0.5,0-1,0.1-1.5,0.3c-0.5,0.2-0.9,0.4-1.3,0.7v11.5h-5.2v-16.2h5.2v1.8c0.9-0.7,1.7-1.2,2.6-1.6
				c0.8-0.4,1.7-0.6,2.7-0.6c1.1,0,2,0.2,2.8,0.7s1.5,1.2,1.9,2.1c1-0.9,2-1.6,3-2.1c1-0.5,1.9-0.7,2.9-0.7c1.7,0,3.1,0.5,4,1.6
				c0.9,1,1.4,2.6,1.4,4.5v10.5h-5.2v-8.1c0-0.8,0-1.5-0.1-2s-0.1-1-0.3-1.3c-0.2-0.3-0.4-0.6-0.8-0.8c-0.4-0.2-0.9-0.2-1.5-0.2
				c-0.4,0-0.9,0.1-1.3,0.2C338.4,160.6,337.9,160.9,337.3,161.2z"/>
		</g>
	</g>
</g>
</svg>
