<?xml version="1.0" encoding="utf-8"?>
<!-- Generator: Adobe Illustrator 21.0.2, SVG Export Plug-In . SVG Version: 6.00 Build 0)  -->
<svg version="1.1" id="Layer_1" xmlns="http://www.w3.org/2000/svg" xmlns:xlink="http://www.w3.org/1999/xlink" x="0px" y="0px"
	 viewBox="0 0 38.1 38.1" style="enable-background:new 0 0 38.1 38.1;" xml:space="preserve">
<style type="text/css">
	.st0{display:none;}
	.st1{display:inline;}
	.st2{clip-path:url(#SVGID_2_);fill:#FFFFFF;}
	.st3{display:inline;fill:none;stroke:#FFFFFF;stroke-width:0.687;stroke-miterlimit:10;}
	.st4{fill:none;stroke:#FFFFFF;stroke-width:0.687;stroke-miterlimit:10;}
	.st5{fill:#FFFFFF;}
</style>
<g class="st0">
	<g class="st1">
		<g>
			<defs>
				<rect id="SVGID_1_" x="14.7" y="11.1" width="8.1" height="15.8"/>
			</defs>
			<clipPath id="SVGID_2_">
				<use xlink:href="#SVGID_1_"  style="overflow:visible;"/>
			</clipPath>
			<path class="st2" d="M20,26.8v-7.2h2.4l0.4-2.8H20v-1.8c0-0.8,0.2-1.4,1.4-1.4h1.5v-2.5c-0.3,0-1.1-0.1-2.2-0.1
				c-2.1,0-3.6,1.3-3.6,3.7v2.1h-2.4v2.8h2.4v7.2H20z M20,26.8"/>
		</g>
	</g>
	<circle class="st3" cx="19.1" cy="19.1" r="18"/>
</g>
<g>
	<circle class="st4" cx="19.1" cy="19.1" r="18"/>
	<path class="st5" d="M26.8,14.3c-0.6,0.3-1.2,0.4-1.8,0.5c0.7-0.4,1.2-1,1.4-1.8c-0.6,0.4-1.3,0.6-2,0.8c-0.6-0.6-1.4-1-2.3-1
		c-1.8,0-3.2,1.4-3.2,3.2c0,0.2,0,0.5,0.1,0.7c-2.6-0.1-5-1.4-6.5-3.3c-0.3,0.5-0.4,1-0.4,1.6c0,1.1,0.6,2.1,1.4,2.6
		c-0.5,0-1-0.2-1.4-0.4c0,0,0,0,0,0c0,1.5,1.1,2.8,2.5,3.1c-0.3,0.1-0.5,0.1-0.8,0.1c-0.2,0-0.4,0-0.6-0.1c0.4,1.3,1.6,2.2,3,2.2
		c-1.1,0.9-2.5,1.4-3.9,1.4c-0.3,0-0.5,0-0.8,0c1.4,0.9,3.1,1.4,4.9,1.4c5.8,0,9-4.8,9-9c0-0.1,0-0.3,0-0.4
		C25.8,15.5,26.4,14.9,26.8,14.3z"/>
</g>
</svg>
